# xmcd
#
# Track frame offsets:
#       183
#       25895
#       49690
#
# Disc length: 971 seconds
#
# Revision: 1
# Processed by: cddbd v1.5.2PL0 Copyright (c) Steve Scherf et al.
# Submitted via: FreeDbEdit v0.1
#
DISCID=1c03c903
DTITLE=The O'Jays - Emotionally Yours
DYEAR=1900
DGENRE=Blues
TTITLE0=Emotionally Yours (Gospel Version)
TTITLE1=Emotionally Yours (R and B Version)
TTITLE2=Have You Ever Had Your Love Today?
EXTD=ID3G: 0
EXTT0=
EXTT1=
EXTT2=
PLAYORDER=
